<svg width="814" height="855" viewBox="0 0 814 855" fill="none" xmlns="http://www.w3.org/2000/svg">
<path d="M396.8 1.87088C392.267 3.33755 388.4 5.87088 383.867 10.5376C376.267 18.2709 372.533 26.2709 370.4 38.6709C367.867 52.9375 370.133 62.4042 380.667 83.0709C385.467 92.5375 390 102.404 390.667 104.671C392.533 111.471 390 117.604 383.333 123.204C377.733 127.738 377.333 128.538 377.333 134.271C377.333 151.471 396 159.604 412.8 149.738C425.6 142.271 433.733 127.471 433.867 111.738C433.867 99.3376 431.6 92.0042 421.067 71.6042C409.2 48.5375 409.333 42.2709 421.467 30.6709C426.533 26.0042 427.067 24.6709 426.933 19.7375C426.533 11.8709 423.067 6.93755 415.467 3.07089C407.867 -0.795776 405.867 -0.795776 396.8 1.87088Z" fill="black"/>
<path d="M486.933 29.8709C474.267 36.1375 466.533 49.6042 465.6 67.2042C464.8 81.0709 466.933 88.0042 478 109.738C484.933 123.071 486.667 127.871 486.667 132.538C486.667 140.404 484.133 145.071 477.467 149.471C472.267 152.938 472 153.338 472 160.138C472 172.538 479.067 179.738 491.333 179.738C499.733 179.738 505.467 177.071 513.733 169.204C522.133 161.204 526.4 153.204 528.4 141.738C530.667 128.404 528.4 119.738 516.667 96.4042C511.2 85.3375 506.667 74.6709 506.667 72.6709C506.667 66.8042 509.867 60.8042 515.867 55.4709C520.533 51.3375 521.333 49.7375 521.333 45.4709C521.333 30.0042 503.2 21.7375 486.933 29.8709Z" fill="black"/>
<path d="M310 35.6042C290.267 40.4042 277.2 64.9375 281.467 89.6042C282.667 96.6709 285.333 103.471 292.133 116.804C297.2 126.671 301.6 136.671 302.133 139.204C303.333 145.871 300.4 152.804 294.667 156.804C288.933 160.804 287.2 165.204 288.8 172.004C290.933 181.738 298.4 187.738 308.8 187.738C330.267 187.738 348 161.738 344 136.404C342.133 124.671 339.6 118.271 331.067 103.204C319.733 83.2042 320 74.9375 332.133 63.6042C338.267 57.8709 338.667 54.8042 334.4 46.4042C329.867 37.6042 319.867 33.2042 310 35.6042Z" fill="black"/>
<path d="M232.933 158.404C173.867 169.738 140.4 185.604 129.733 207.471L126 215.071V463.738V712.404L129.067 722.404C138.267 751.471 159.867 780.138 187.867 800.271C235.733 834.538 299.333 851.604 388.533 853.871C469.867 856.004 540.4 844.671 589.867 821.204C629.2 802.671 659.067 774.938 674.667 742.138C681.867 727.071 684.933 713.871 686.133 693.471L687.067 676.138L702.533 675.338C721.733 674.404 735.2 670.938 750.4 663.071C772.4 651.738 788.933 635.204 799.467 613.738C811.333 589.738 811.067 591.071 811.733 522.404C812.267 456.271 811.733 449.204 805.2 431.204C788.667 385.604 744.8 355.738 694.667 355.738H686.8L686.4 286.004L686 216.404L682.133 208.138C673.6 189.471 652.533 176.538 613.6 165.871C599.867 162.004 563.2 154.404 558.8 154.404C558.133 154.404 557.067 158.671 556.133 163.738C554.267 175.604 550.533 183.338 543.067 191.738C536.267 199.338 534.267 198.138 559.333 202.404C589.067 207.471 629.2 219.338 627.333 222.538C626 224.538 601.6 231.604 581.2 235.738C559.733 240.271 521.867 245.338 490.667 248.004C462.933 250.271 342.133 250.271 318 248.004C293.067 245.604 252 239.871 238 237.071C212.267 231.738 187.733 224.938 184.933 222.404C182.133 219.871 223.333 207.871 254 202.271C262.8 200.671 270.267 199.204 270.533 198.938C270.667 198.804 269.467 196.938 267.6 194.938C260.133 186.938 256.8 178.538 256.267 166.004C255.867 158.538 255.2 154.404 254.133 154.538C253.333 154.538 243.867 156.271 232.933 158.404ZM206.667 282.538C238.267 290.271 285.6 296.938 326.667 299.738C353.733 301.471 456.8 301.471 483.6 299.738C514.533 297.738 551.733 293.338 581.067 288.404L585.333 287.604V317.737V347.738H404.667H224V372.404V397.071H404.667H585.333V421.071V445.071H404.667H224V469.738V494.404H358.667H493.333V519.738V545.071L358.667 544.671L224 544.404V568.671V593.071H358.667H493.333V617.738V642.404H358.667H224V667.071V691.604H289.067C324.8 691.471 406 691.471 469.733 691.604L585.333 691.738V716.404V741.071H512.933H440.533L428.533 745.204C391.2 758.004 360.8 763.071 322 762.938C285.067 762.938 260.667 758.804 232.667 748.004C210.667 739.604 199.867 732.804 183.067 716.671L172 706.004V489.604V273.204L181.067 275.871C186 277.338 197.467 280.404 206.667 282.538ZM717.867 425.204C728.133 429.204 741.333 441.338 745.867 450.804C751.733 463.604 752.267 469.071 751.733 521.071C751.333 567.604 751.2 570.004 748.4 576.938C744.4 586.804 739.333 593.604 731.733 599.738C722.8 606.804 712.8 610.271 698.533 611.338L686.667 612.138V516.404V420.671L698.4 421.471C705.867 421.871 712.8 423.204 717.867 425.204Z" fill="black"/>
<path d="M715.2 171.604C714.4 172.538 714.533 200.404 715.6 212.671L716.4 223.738L739.867 224.004L763.333 224.404L763.733 277.204L764 330.004L775.6 337.871C782 342.138 792.667 350.938 799.467 357.338C806.133 363.871 812 369.071 812.533 369.071C812.933 369.071 813.333 324.671 813.333 270.404V171.738L764.533 171.471C737.733 171.204 715.467 171.338 715.2 171.604Z" fill="black"/>
<path d="M0.266667 504.404L0.666667 837.204L48.6667 837.071C84.9333 837.071 96.8 836.671 97.6 835.337C98.1333 834.537 98.5333 822.937 98.2667 809.737L98 785.737L74 785.337L50 785.071L50.2667 505.604C50.4 351.871 50.9333 225.737 51.3333 225.204C51.8667 224.804 62.2667 224.271 74.6667 224.004C96.4 223.471 97.0667 223.471 97.8667 220.671C98.2667 219.071 98.6667 207.337 98.6667 194.671V171.737H49.3333H0L0.266667 504.404Z" fill="black"/>
<path d="M806.8 677.604C800.4 684.138 783.6 696.004 773.067 701.204L764.133 705.738L764 745.338V785.071H739.333H714.667V804.671C714.667 815.604 715.067 827.338 715.467 831.071L716.267 837.738L764.533 837.471L812.667 837.204L813.067 755.071C813.2 710.004 812.933 673.071 812.267 673.071C811.733 673.071 809.2 675.071 806.8 677.604Z" fill="black"/>
</svg>
