<svg width="22" height="22" viewBox="0 0 22 22" fill="none" xmlns="http://www.w3.org/2000/svg">
<path d="M9.56506 1.07506C10.0132 0.861064 10.5035 0.75 11.0001 0.75C11.4966 0.75 11.9869 0.861064 12.4351 1.07506C12.8291 1.26406 13.1901 1.57206 13.6951 2.00306L13.7741 2.06906C14.2541 2.47906 14.7131 2.67306 15.3541 2.72406L15.4561 2.73206C16.1181 2.78506 16.5911 2.82206 17.0031 2.96806C17.4713 3.13349 17.8966 3.40155 18.2479 3.75263C18.5991 4.1037 18.8674 4.52889 19.0331 4.99706C19.1781 5.40906 19.2151 5.88206 19.2681 6.54406L19.2761 6.64606C19.3271 7.28706 19.5221 7.74606 19.9311 8.22606L19.9971 8.30406C20.4281 8.81006 20.7371 9.17106 20.9251 9.56506C21.1391 10.0132 21.2501 10.5035 21.2501 11.0001C21.2501 11.4966 21.1391 11.9869 20.9251 12.4351C20.7361 12.8291 20.4281 13.1901 19.9971 13.6951L19.9311 13.7741C19.5131 14.2641 19.3261 14.7251 19.2761 15.3541L19.2681 15.4561C19.2151 16.1181 19.1781 16.5911 19.0321 17.0031C18.8666 17.4713 18.5986 17.8966 18.2475 18.2479C17.8964 18.5991 17.4712 18.8674 17.0031 19.0331C16.5911 19.1781 16.1181 19.2151 15.4561 19.2681L15.3541 19.2761C14.7131 19.3271 14.2541 19.5221 13.7741 19.9311L13.6951 19.9971C13.1901 20.4281 12.8291 20.7371 12.4351 20.9251C11.9869 21.1391 11.4966 21.2501 11.0001 21.2501C10.5035 21.2501 10.0132 21.1391 9.56506 20.9251C9.17106 20.7361 8.81006 20.4281 8.30506 19.9971L8.22606 19.9311C7.79006 19.538 7.23224 19.3068 6.64606 19.2761L6.54406 19.2681C5.88206 19.2151 5.40906 19.1781 4.99706 19.0321C4.52881 18.8666 4.10349 18.5986 3.75224 18.2475C3.40099 17.8964 3.13272 17.4712 2.96706 17.0031C2.82206 16.5911 2.78506 16.1181 2.73206 15.4561L2.72406 15.3541C2.69332 14.7679 2.46208 14.2101 2.06906 13.7741L2.00306 13.6951C1.57206 13.1901 1.26306 12.8291 1.07506 12.4351C0.861064 11.9869 0.75 11.4966 0.75 11.0001C0.75 10.5035 0.861064 10.0132 1.07506 9.56506C1.26406 9.17106 1.57206 8.81006 2.00306 8.30506L2.06906 8.22606C2.46208 7.79006 2.69332 7.23224 2.72406 6.64606L2.73206 6.54406C2.78506 5.88206 2.82206 5.40906 2.96806 4.99706C3.13349 4.52881 3.40155 4.10349 3.75263 3.75224C4.1037 3.40099 4.52889 3.13272 4.99706 2.96706C5.40906 2.82206 5.88206 2.78506 6.54406 2.73206L6.64606 2.72406C7.23224 2.69332 7.79006 2.46208 8.22606 2.06906L8.30406 2.00306C8.81006 1.57206 9.17106 1.26306 9.56506 1.07506ZM9.03006 7.97006C8.9614 7.89637 8.8786 7.83727 8.7866 7.79628C8.6946 7.75529 8.59528 7.73324 8.49458 7.73147C8.39388 7.72969 8.29385 7.74821 8.20046 7.78594C8.10707 7.82366 8.02224 7.8798 7.95102 7.95102C7.8798 8.02224 7.82366 8.10707 7.78594 8.20046C7.74821 8.29385 7.72969 8.39388 7.73147 8.49458C7.73324 8.59528 7.75529 8.6946 7.79628 8.7866C7.83727 8.8786 7.89637 8.9614 7.97006 9.03006L8.32306 9.38406C8.39172 9.45774 8.47452 9.51685 8.56652 9.55784C8.65852 9.59883 8.75783 9.62087 8.85854 9.62265C8.95924 9.62443 9.05927 9.6059 9.15266 9.56818C9.24604 9.53046 9.33088 9.47431 9.4021 9.4031C9.47332 9.33188 9.52946 9.24704 9.56718 9.15366C9.6049 9.06027 9.62343 8.96024 9.62165 8.85954C9.61987 8.75883 9.59783 8.65952 9.55684 8.56752C9.51585 8.47552 9.45675 8.39272 9.38306 8.32406L9.03006 7.97006ZM12.6201 12.6201C12.4796 12.7607 12.4007 12.9513 12.4007 13.1501C12.4007 13.3488 12.4796 13.5394 12.6201 13.6801L12.9731 14.0341C13.1152 14.1665 13.3033 14.2387 13.4976 14.2352C13.6919 14.2318 13.8773 14.1531 14.0147 14.0157C14.1521 13.8783 14.2308 13.6929 14.2342 13.4986C14.2377 13.3043 14.1655 13.1162 14.0331 12.9741L13.6801 12.6201C13.5394 12.4796 13.3488 12.4007 13.1501 12.4007C12.9513 12.4007 12.7607 12.4796 12.6201 12.6201ZM14.0301 9.03006C14.1037 8.9614 14.1628 8.8786 14.2038 8.7866C14.2448 8.6946 14.2669 8.59528 14.2687 8.49458C14.2704 8.39388 14.2519 8.29385 14.2142 8.20046C14.1765 8.10707 14.1203 8.02224 14.0491 7.95102C13.9779 7.8798 13.893 7.82366 13.7997 7.78594C13.7063 7.74821 13.6062 7.72969 13.5055 7.73147C13.4048 7.73324 13.3055 7.75529 13.2135 7.79628C13.1215 7.83727 13.0387 7.89637 12.9701 7.97006L7.97006 12.9701C7.89637 13.0387 7.83727 13.1215 7.79628 13.2135C7.75529 13.3055 7.73324 13.4048 7.73147 13.5055C7.72969 13.6062 7.74821 13.7063 7.78594 13.7997C7.82366 13.893 7.8798 13.9779 7.95102 14.0491C8.02224 14.1203 8.10707 14.1765 8.20046 14.2142C8.29385 14.2519 8.39388 14.2704 8.49458 14.2687C8.59528 14.2669 8.6946 14.2448 8.7866 14.2038C8.8786 14.1628 8.9614 14.1037 9.03006 14.0301L14.0301 9.03006Z" fill="white"/>
</svg>
